<svg width="542" height="355" viewBox="0 0 542 355" fill="none" xmlns="http://www.w3.org/2000/svg">
<path d="M293.765 1.23637C274.965 4.43637 257.232 14.0364 241.632 29.6364C224.965 46.303 218.432 61.7697 218.432 85.103C218.432 100.57 222.432 116.303 230.432 132.57C237.899 147.636 246.565 157.636 261.099 167.903C279.099 180.703 287.499 183.103 311.899 182.17L328.432 181.636L315.765 184.703C299.499 188.703 274.432 190.17 260.165 187.77C248.699 185.903 233.499 181.236 228.299 177.77L224.965 175.636L227.765 172.17C232.965 165.503 230.165 151.77 222.299 146.036C217.765 142.836 213.765 143.903 210.965 149.37C208.032 154.97 209.632 162.57 215.232 169.77C219.499 175.37 219.499 175.77 216.965 175.77C215.365 175.77 208.299 174.036 201.232 171.77C183.099 166.303 170.832 164.57 162.165 166.436C154.832 167.903 138.432 176.303 138.432 178.436C138.432 180.436 139.499 180.036 145.499 176.036C160.165 166.036 172.965 165.503 200.432 173.77C209.232 176.436 217.899 178.303 219.499 178.036C221.365 177.636 225.899 179.103 230.165 181.236C254.965 193.503 298.699 194.17 331.765 182.703C351.632 175.77 362.965 168.836 378.432 154.036C385.765 146.97 388.832 142.57 393.765 132.836C402.165 115.37 404.299 106.303 403.365 89.103C401.765 55.7697 386.432 24.4364 365.899 12.4364C362.965 10.703 355.632 8.03636 349.765 6.5697C343.899 5.10303 335.499 2.9697 331.099 1.90303C322.699 -0.363647 304.965 -0.630295 293.765 1.23637ZM330.432 3.90303C334.165 4.70302 336.965 5.7697 336.432 6.16971C336.032 6.5697 328.699 6.9697 320.032 7.10304C305.632 7.23637 303.765 7.63637 296.432 11.2364C279.099 19.7697 265.632 37.6364 262.299 56.4364C261.632 60.8364 258.965 69.3697 256.432 75.2364C249.365 92.4364 247.365 104.036 248.032 122.836C248.699 138.436 250.299 146.17 256.432 160.436C258.165 164.57 248.032 155.37 241.899 147.236C224.965 124.836 216.565 90.303 222.299 66.4364C229.099 38.1697 254.965 13.903 287.765 4.9697C297.899 2.16969 320.032 1.63635 330.432 3.90303ZM311.765 12.703C295.632 20.0364 282.432 31.7697 270.965 48.9697C267.499 54.1697 264.565 58.4364 264.432 58.4364C263.232 58.4364 267.099 46.1697 269.899 40.4364C279.099 22.303 297.632 9.10303 313.765 9.23637L319.099 9.36971L311.765 12.703ZM361.765 13.103C371.499 17.7697 383.499 30.5697 389.365 42.4364C392.032 47.903 394.699 53.903 395.099 55.7697C395.899 58.9697 395.765 58.9697 392.965 55.103C383.765 42.703 366.565 30.4364 358.432 30.4364C356.032 30.4364 353.099 28.4364 349.099 24.303C345.765 20.9697 340.565 16.5697 337.499 14.5697C334.432 12.4364 332.299 10.303 332.832 9.7697C333.365 9.23636 338.565 9.10303 344.432 9.36971C352.299 9.63637 356.832 10.703 361.765 13.103ZM311.099 21.3697C300.299 32.303 296.832 39.3697 294.299 56.0364C291.899 71.7697 294.965 88.4364 303.765 107.236C313.499 128.303 325.499 143.103 342.699 155.503C348.299 159.503 353.232 163.636 353.632 164.57C356.299 171.636 320.565 182.303 299.765 180.703C288.965 179.77 277.899 176.97 273.899 174.036C272.032 172.703 274.299 172.836 283.232 174.703C302.565 178.57 317.099 177.636 317.099 172.436C317.099 171.37 311.232 164.57 304.165 157.37C289.499 142.836 281.632 130.703 272.965 109.77C266.432 93.6364 263.765 83.103 263.765 72.5697C263.765 65.903 264.432 63.6364 268.699 56.5697C281.232 35.7697 298.299 20.0364 315.232 13.903C318.165 12.8364 320.565 11.903 320.565 11.903C320.699 11.7697 316.432 16.1697 311.099 21.3697ZM333.232 14.5697C336.299 16.0364 341.365 20.0364 344.699 23.3697L350.832 29.3697L342.965 32.0364C328.165 36.9697 316.165 47.2364 311.232 58.8364C308.699 64.9697 305.765 79.6364 304.299 92.4364L303.365 101.77L300.165 91.7697C290.032 60.703 298.565 29.903 320.965 15.503C324.299 13.503 327.099 11.7697 327.365 11.7697C327.632 11.7697 330.299 12.9697 333.232 14.5697ZM356.299 37.7697C360.832 45.3697 367.099 64.5697 370.432 81.103C374.032 98.4364 374.032 98.4364 368.832 98.4364C366.432 98.4364 361.499 99.903 357.765 101.636C340.699 109.77 332.699 128.036 339.765 143.37C347.899 161.503 359.765 159.636 370.032 138.836C374.565 129.77 375.099 127.503 375.765 114.836L376.432 100.836L380.032 104.436C382.165 106.436 384.432 110.57 385.232 113.636C386.832 119.636 386.165 133.636 383.765 141.37C381.899 147.636 372.832 157.636 362.565 164.97C354.565 170.57 354.299 170.57 355.232 167.236C356.299 162.703 355.099 161.37 342.165 152.303C330.299 144.036 317.232 128.703 310.032 114.57C305.632 105.77 305.632 105.77 306.699 93.103C309.099 65.6364 315.499 50.4364 328.432 41.7697C334.032 38.1697 348.432 32.0364 352.032 31.7697C352.432 31.7697 354.432 34.4364 356.299 37.7697ZM369.365 36.8364C377.632 41.2364 390.432 54.703 395.099 63.7697C399.899 73.103 401.365 85.2364 399.632 99.6364C398.299 111.103 392.832 129.77 389.632 134.036C388.165 136.036 388.032 135.37 388.699 128.97C389.765 117.636 387.099 108.436 380.965 102.303C376.165 97.503 375.499 95.903 373.099 83.6364C369.765 66.4364 364.565 49.2364 359.632 39.3697L355.632 31.6364L359.365 32.5697C361.499 33.103 365.899 34.9697 369.365 36.8364ZM265.899 97.503C274.299 122.97 284.965 141.103 301.499 158.036C310.032 166.703 314.299 172.17 313.765 173.236C311.365 176.836 276.565 172.303 266.165 166.97C256.832 162.17 249.765 140.836 249.899 117.77C250.032 102.436 250.965 97.5031 256.699 81.103L260.299 71.103L262.032 80.8364C262.832 86.303 264.699 93.7697 265.899 97.503ZM373.899 105.77C377.099 123.37 364.032 153.103 353.099 153.103C348.565 153.103 346.032 150.836 342.299 143.37C338.165 135.37 339.099 123.103 344.565 115.503C349.632 108.17 361.232 101.103 368.032 101.103C372.699 101.103 373.099 101.37 373.899 105.77ZM221.365 147.903C222.832 148.703 225.232 152.036 226.699 155.37C229.499 161.636 229.232 165.903 225.632 171.503C223.099 175.503 219.632 173.77 215.099 165.903C211.365 159.37 210.699 151.636 213.899 148.57C216.299 146.036 217.632 145.903 221.365 147.903Z" fill="black"/>
<path d="M2.27617 278.888L21.9132 227.788H26.4392L46.0762 278.888H40.7472L31.6952 254.944H15.1242L7.60517 278.888H2.27617ZM22.4242 231.584L15.6352 253.192H31.0382L22.8622 231.584H22.4242ZM65.9812 227.788H70.9452V258.594C70.9452 264.482 72.3809 269.081 75.2522 272.391C78.1722 275.651 82.2602 277.282 87.5162 277.282C90.8256 277.282 93.6969 276.649 96.1302 275.384C98.6122 274.07 100.51 272.269 101.824 269.982C103.187 267.694 103.82 265.066 103.722 262.098L102.481 227.788H107.445L106.204 262.098C106.01 267.938 104.258 272.366 100.948 275.384C97.6876 278.401 93.0156 279.91 86.9322 279.91C80.3622 279.91 75.2279 278.012 71.5292 274.216C67.8306 270.371 65.9812 265.115 65.9812 258.448V227.788ZM135.174 278.888V227.788H151.234C156.88 227.788 161.795 228.858 165.98 231C170.166 233.141 173.426 236.134 175.762 239.979C178.098 243.775 179.266 248.228 179.266 253.338C179.266 258.448 178.098 262.925 175.762 266.77C173.426 270.566 170.166 273.534 165.98 275.676C161.795 277.817 156.88 278.888 151.234 278.888H135.174ZM151.234 229.54H140.138V277.136H151.234C158.291 277.136 163.79 275.043 167.732 270.858C171.723 266.672 173.718 260.832 173.718 253.338C173.718 245.843 171.723 240.003 167.732 235.818C163.79 231.632 158.291 229.54 151.234 229.54ZM204.849 278.888V227.788H227.114V231.365L214.339 229.686C212.101 229.394 210.592 229.248 209.813 229.248V251.513C210.446 251.513 211.955 251.44 214.339 251.294L226.311 250.564V253.922L214.339 253.192C211.955 253.046 210.446 252.973 209.813 252.973V277.428C210.689 277.428 212.222 277.282 214.412 276.99L227.333 275.311V278.888H204.849ZM252.853 227.788H257.817V277.428C258.741 277.428 260.201 277.282 262.197 276.99L274.315 275.165V278.888H252.853V227.788ZM285.218 227.788H290.547L308.432 272.464H308.87L320.55 243.556L314.199 227.788H319.528L337.34 272.318H337.778L352.524 227.788H357.853L336.829 279.91H335.223L321.572 245.965L307.848 279.91H306.242L285.218 227.788ZM379.442 278.888V227.788H401.707V231.365L388.932 229.686C386.693 229.394 385.185 229.248 384.406 229.248V251.513C385.039 251.513 386.547 251.44 388.932 251.294L400.904 250.564V253.922L388.932 253.192C386.547 253.046 385.039 252.973 384.406 252.973V277.428C385.282 277.428 386.815 277.282 389.005 276.99L401.926 275.311V278.888H379.442ZM427.445 278.888V227.788H432.409V278.888H427.445ZM457.165 277.282L457.603 272.902H458.041C459.939 274.556 462.081 275.846 464.465 276.771C466.85 277.695 469.21 278.158 471.546 278.158C474.856 278.158 477.532 277.257 479.576 275.457C481.62 273.607 482.642 271.15 482.642 268.084C482.642 266.38 482.253 264.799 481.474 263.339C480.744 261.879 479.503 260.394 477.751 258.886C476.048 257.377 473.688 255.747 470.67 253.995C468.578 252.778 466.582 251.513 464.684 250.199C462.786 248.836 461.229 247.279 460.012 245.527C458.796 243.726 458.187 241.585 458.187 239.103C458.187 235.404 459.526 232.435 462.202 230.197C464.879 227.909 468.407 226.766 472.787 226.766C474.734 226.766 476.827 226.985 479.065 227.423C481.304 227.812 483.032 228.323 484.248 228.956L483.883 233.044H483.445C480.671 230.026 477.119 228.518 472.787 228.518C469.673 228.518 467.166 229.321 465.268 230.927C463.37 232.484 462.421 234.601 462.421 237.278C462.421 239.273 462.932 241.001 463.954 242.461C465.025 243.872 466.388 245.162 468.042 246.33C469.697 247.449 471.473 248.544 473.371 249.615C475.561 250.88 477.678 252.218 479.722 253.63C481.815 255.041 483.518 256.744 484.832 258.74C486.195 260.686 486.876 263.144 486.876 266.113C486.876 268.838 486.244 271.247 484.978 273.34C483.713 275.384 481.912 276.99 479.576 278.158C477.289 279.326 474.612 279.91 471.546 279.91C469.6 279.91 467.312 279.666 464.684 279.18C462.056 278.693 459.55 278.06 457.165 277.282ZM507.022 277.282L507.46 272.902H507.898C509.796 274.556 511.937 275.846 514.322 276.771C516.707 277.695 519.067 278.158 521.403 278.158C524.712 278.158 527.389 277.257 529.433 275.457C531.477 273.607 532.499 271.15 532.499 268.084C532.499 266.38 532.11 264.799 531.331 263.339C530.601 261.879 529.36 260.394 527.608 258.886C525.905 257.377 523.544 255.747 520.527 253.995C518.434 252.778 516.439 251.513 514.541 250.199C512.643 248.836 511.086 247.279 509.869 245.527C508.652 243.726 508.044 241.585 508.044 239.103C508.044 235.404 509.382 232.435 512.059 230.197C514.736 227.909 518.264 226.766 522.644 226.766C524.591 226.766 526.683 226.985 528.922 227.423C531.161 227.812 532.888 228.323 534.105 228.956L533.74 233.044H533.302C530.528 230.026 526.975 228.518 522.644 228.518C519.529 228.518 517.023 229.321 515.125 230.927C513.227 232.484 512.278 234.601 512.278 237.278C512.278 239.273 512.789 241.001 513.811 242.461C514.882 243.872 516.244 245.162 517.899 246.33C519.554 247.449 521.33 248.544 523.228 249.615C525.418 250.88 527.535 252.218 529.579 253.63C531.672 255.041 533.375 256.744 534.689 258.74C536.052 260.686 536.733 263.144 536.733 266.113C536.733 268.838 536.1 271.247 534.835 273.34C533.57 275.384 531.769 276.99 529.433 278.158C527.146 279.326 524.469 279.91 521.403 279.91C519.456 279.91 517.169 279.666 514.541 279.18C511.913 278.693 509.407 278.06 507.022 277.282Z" fill="black"/>
<line y1="322.888" x2="169.5" y2="322.888" stroke="black"/>
<path d="M229.773 324.31C230.073 324.31 230.319 324.419 230.511 324.638C230.729 324.856 230.825 325.116 230.798 325.417C230.798 325.717 230.675 325.963 230.429 326.155C227.094 328.943 223.377 331.088 219.277 332.592C215.177 334.095 210.94 334.86 206.567 334.888C204.435 334.888 202.316 334.696 200.212 334.314C198.982 334.095 197.943 333.781 197.096 333.371C196.248 332.933 195.633 332.455 195.251 331.936C194.841 331.416 194.567 330.938 194.431 330.501C194.267 330.036 194.185 329.571 194.185 329.107C194.185 327.74 194.704 326.332 195.743 324.884C196.754 323.408 197.957 322.178 199.351 321.194C200.772 320.21 202.084 319.595 203.287 319.349C204.954 318.884 206.457 319.171 207.797 320.21C208.917 321.276 209.478 322.588 209.478 324.146C209.45 324.446 209.327 324.706 209.109 324.925C208.917 325.116 208.671 325.212 208.371 325.212C208.07 325.212 207.81 325.102 207.592 324.884C207.4 324.665 207.305 324.405 207.305 324.105C207.332 323.23 207.031 322.478 206.403 321.85C205.555 321.303 204.653 321.18 203.697 321.481C202.193 321.754 200.581 322.752 198.859 324.474C197.164 326.168 196.317 327.713 196.317 329.107C196.344 330.665 197.765 331.703 200.581 332.223C202.33 332.523 204.093 332.687 205.87 332.715C207.674 332.742 209.314 332.66 210.79 332.469C212.293 332.25 213.783 331.949 215.259 331.567C216.735 331.184 218.047 330.76 219.195 330.296C220.343 329.831 221.45 329.325 222.516 328.779C223.609 328.205 224.511 327.699 225.222 327.262C225.96 326.824 226.643 326.373 227.272 325.909C227.9 325.444 228.324 325.13 228.543 324.966C228.761 324.774 228.912 324.638 228.994 324.556C229.212 324.364 229.472 324.282 229.773 324.31ZM263.384 323.777C263.684 323.777 263.93 323.886 264.122 324.105C264.34 324.323 264.45 324.583 264.45 324.884C264.45 325.157 264.34 325.403 264.122 325.622C261.47 328.191 258.204 330.173 254.323 331.567C250.441 332.933 246.888 333.617 243.663 333.617C242.105 333.699 240.601 333.412 239.153 332.756C238.524 332.4 238.018 332.004 237.636 331.567C237.253 331.129 237.007 330.665 236.898 330.173C236.788 329.653 236.72 329.189 236.693 328.779C236.693 328.369 236.788 327.904 236.98 327.385C237.171 326.838 237.321 326.428 237.431 326.155C237.567 325.854 237.745 325.485 237.964 325.048C238.046 324.884 237.977 324.788 237.759 324.761C237.649 324.761 237.499 324.815 237.308 324.925C235.804 325.745 234.192 326.114 232.47 326.032C231.704 326.059 230.953 325.909 230.215 325.581C229.941 325.663 229.668 325.635 229.395 325.499C228.957 325.28 228.766 324.925 228.821 324.433C228.411 323.941 228.124 323.38 227.96 322.752C227.632 321.631 227.659 320.524 228.042 319.431C228.424 318.337 229.094 317.435 230.051 316.725C231.199 316.041 232.101 316.014 232.757 316.643C233.659 317.49 233.358 319.608 231.855 322.998C231.8 323.134 231.841 323.326 231.978 323.572C232.114 323.79 232.278 323.9 232.47 323.9C234.055 323.9 235.545 323.503 236.939 322.711C237.349 322.465 237.677 322.301 237.923 322.219C238.169 322.109 238.497 322.068 238.907 322.096C239.317 322.096 239.699 322.232 240.055 322.506C240.41 322.779 240.601 323.134 240.629 323.572C240.656 324.009 240.601 324.392 240.465 324.72C240.355 325.02 240.164 325.444 239.891 325.991C239.207 327.248 238.866 328.259 238.866 329.025C238.893 329.763 239.358 330.391 240.26 330.911C240.806 331.239 241.695 331.43 242.925 331.485C244.155 331.539 245.603 331.43 247.271 331.157C248.938 330.883 250.66 330.473 252.437 329.927C254.213 329.38 256.017 328.601 257.849 327.59C259.68 326.551 261.265 325.376 262.605 324.064C262.823 323.872 263.083 323.777 263.384 323.777ZM229.969 321.85C230.461 320.811 230.843 319.731 231.117 318.611C230.105 319.485 229.723 320.565 229.969 321.85ZM294.95 324.597C295.25 324.597 295.496 324.706 295.688 324.925C295.879 325.143 295.961 325.403 295.934 325.704C295.934 326.004 295.824 326.25 295.606 326.442C295.36 326.66 295.032 326.947 294.622 327.303C294.239 327.631 293.528 328.177 292.49 328.943C291.451 329.708 290.399 330.405 289.333 331.034C288.267 331.662 287.009 332.291 285.561 332.92C284.112 333.521 282.718 333.945 281.379 334.191C280.039 334.437 278.632 334.464 277.156 334.273C275.68 334.054 274.327 333.548 273.097 332.756C271.949 332.018 271.033 331.061 270.35 329.886C270.158 329.558 269.858 329.38 269.448 329.353C269.065 329.325 268.764 329.476 268.546 329.804C267.589 331.28 266.537 332.523 265.389 333.535C264.268 334.546 263.229 335.065 262.273 335.093H262.232C261.74 335.065 261.289 334.915 260.879 334.642C260.441 334.341 260.127 333.958 259.936 333.494C259.116 331.444 259.239 329.448 260.305 327.508C261.207 325.622 262.464 324.023 264.077 322.711C265.717 321.371 267.562 320.456 269.612 319.964C270.022 319.854 270.363 319.95 270.637 320.251C270.937 320.551 271.019 320.907 270.883 321.317C270.773 321.699 270.514 321.945 270.104 322.055C268.382 322.465 266.837 323.23 265.471 324.351C264.104 325.444 263.038 326.797 262.273 328.41C261.507 329.722 261.371 331.088 261.863 332.51C262.027 332.783 262.15 332.92 262.232 332.92C262.696 333.22 263.598 332.373 264.938 330.378C266.277 328.382 267.48 326.223 268.546 323.9C268.764 323.408 269.147 323.203 269.694 323.285C270.213 323.367 270.514 323.667 270.596 324.187C270.623 324.323 270.65 324.515 270.678 324.761C270.732 324.979 270.855 325.403 271.047 326.032C271.238 326.633 271.457 327.207 271.703 327.754C271.949 328.3 272.304 328.888 272.769 329.517C273.233 330.118 273.739 330.596 274.286 330.952C275.324 331.635 276.486 332.045 277.771 332.182C279.083 332.318 280.326 332.25 281.502 331.977C282.704 331.703 283.962 331.28 285.274 330.706C286.586 330.104 287.72 329.503 288.677 328.902C289.633 328.3 290.576 327.658 291.506 326.975C292.435 326.291 293.064 325.813 293.392 325.54C293.747 325.239 294.007 325.007 294.171 324.843C294.389 324.651 294.649 324.569 294.95 324.597ZM320.887 323.859C321.188 323.859 321.434 323.968 321.625 324.187C321.844 324.405 321.953 324.665 321.953 324.966C321.953 325.266 321.844 325.512 321.625 325.704C318.7 328.519 313.767 329.694 306.824 329.23C303.489 328.984 300.223 328.369 297.025 327.385C296.697 327.275 296.437 327.303 296.246 327.467C296.055 327.603 295.973 327.849 296 328.205C296.055 328.888 296.137 329.722 296.246 330.706C296.41 332.564 296.547 334.177 296.656 335.544C296.765 336.91 296.861 338.4 296.943 340.013C297.025 341.653 297.052 343.06 297.025 344.236C297.025 345.411 296.957 346.586 296.82 347.762C296.711 348.964 296.533 349.962 296.287 350.755C296.041 351.547 295.713 352.231 295.303 352.805C294.893 353.379 294.401 353.775 293.827 353.994C293.608 354.076 293.39 354.117 293.171 354.117C292.679 354.117 292.255 353.953 291.9 353.625C291.271 353.023 290.889 351.766 290.752 349.853C290.588 347.939 290.643 345.684 290.916 343.088C291.189 340.518 291.572 337.867 292.064 335.134C292.556 332.428 293.116 329.804 293.745 327.262C293.745 327.207 293.745 327.152 293.745 327.098C293.663 326.032 293.677 325.321 293.786 324.966C293.868 324.583 294.073 324.31 294.401 324.146C294.428 323.954 294.51 323.777 294.647 323.613L294.729 323.531C296.97 315.741 299.239 311.203 301.535 309.919C302.218 309.509 302.943 309.413 303.708 309.632C304.446 309.823 304.924 310.288 305.143 311.026C305.307 311.709 305.143 312.625 304.651 313.773C304.186 314.893 303.476 316.123 302.519 317.463C301.562 318.775 300.66 319.95 299.813 320.989C298.993 322 298.118 323.011 297.189 324.023C296.888 324.323 296.752 324.569 296.779 324.761C296.834 324.952 297.08 325.13 297.517 325.294C298.856 325.731 300.469 326.114 302.355 326.442C304.268 326.77 306.346 327.002 308.587 327.139C310.856 327.275 313.042 327.098 315.147 326.606C317.279 326.114 318.933 325.307 320.108 324.187C320.327 323.968 320.586 323.859 320.887 323.859ZM302.56 311.805C301.959 312.297 300.852 313.923 299.239 316.684C298.036 318.734 297.64 319.677 298.05 319.513C298.159 319.458 298.351 319.28 298.624 318.98C299.362 318.242 300.114 317.299 300.879 316.151C301.644 314.975 302.232 313.95 302.642 313.076C303.079 312.174 303.216 311.682 303.052 311.6C302.97 311.572 302.888 311.572 302.806 311.6C302.751 311.627 302.697 311.668 302.642 311.723L302.56 311.805ZM293.253 351.903C293.718 351.957 294.1 350.55 294.401 347.68C294.702 344.837 294.838 341.953 294.811 339.029C294.784 336.131 294.633 334.683 294.36 334.683C294.141 334.683 293.895 335.571 293.622 337.348C293.321 339.124 293.089 341.079 292.925 343.211C292.734 345.343 292.665 347.311 292.72 349.115C292.747 350.919 292.925 351.848 293.253 351.903ZM347.337 323.408C347.637 323.408 347.897 323.517 348.116 323.736C348.334 323.927 348.444 324.173 348.444 324.474C348.444 324.774 348.334 325.034 348.116 325.253C347.815 325.581 347.405 325.991 346.886 326.483C346.394 326.947 345.464 327.713 344.098 328.779C342.758 329.845 341.419 330.788 340.08 331.608C338.768 332.428 337.223 333.179 335.447 333.863C333.697 334.519 332.057 334.847 330.527 334.847C329.406 334.847 328.299 334.642 327.206 334.232C324.746 333.302 322.928 331.239 321.753 328.041C320.577 324.843 320.14 320.797 320.441 315.905C320.413 315.686 320.318 315.508 320.154 315.372C319.99 315.235 319.798 315.18 319.58 315.208C318.432 315.29 317.256 315.385 316.054 315.495C314.851 315.577 313.812 315.659 312.938 315.741C312.063 315.795 311.27 315.85 310.56 315.905C309.822 315.932 309.261 315.959 308.879 315.987C308.496 316.014 308.291 316.028 308.264 316.028H308.182C307.881 316.055 307.621 315.973 307.403 315.782C307.184 315.563 307.075 315.303 307.075 315.003C307.075 314.702 307.17 314.442 307.362 314.224C307.553 314.005 307.799 313.896 308.1 313.896C308.127 313.896 308.346 313.882 308.756 313.855C309.166 313.827 309.753 313.786 310.519 313.732C311.257 313.677 312.09 313.622 313.02 313.568C313.922 313.486 315.001 313.404 316.259 313.322C317.516 313.212 318.746 313.117 319.949 313.035C320.441 312.98 320.741 312.597 320.851 311.887C321.097 310.192 321.411 308.538 321.794 306.926C322.204 305.313 322.668 303.769 323.188 302.293C323.707 300.817 324.295 299.6 324.951 298.644C325.634 297.687 326.331 297.14 327.042 297.004C328.135 296.812 328.996 297.359 329.625 298.644C330.035 299.464 329.994 301.09 329.502 303.523C329.01 305.928 328.217 308.661 327.124 311.723C327.042 311.941 327.014 312.119 327.042 312.256C327.096 312.365 327.151 312.447 327.206 312.502C327.26 312.529 327.329 312.543 327.411 312.543C333.67 312.16 338.18 311.969 340.941 311.969C341.241 311.969 341.487 312.078 341.679 312.297C341.897 312.515 342.007 312.775 342.007 313.076C342.007 313.349 341.897 313.595 341.679 313.814C341.487 314.032 341.241 314.142 340.941 314.142C336.677 314.142 331.921 314.347 326.673 314.757C326.427 314.757 326.249 314.784 326.14 314.839C326.058 314.893 325.976 315.016 325.894 315.208C325.21 317.203 324.185 319.923 322.819 323.367C323.502 328.205 325.224 331.157 327.985 332.223C328.777 332.523 329.638 332.674 330.568 332.674C331.497 332.674 332.399 332.551 333.274 332.305C334.176 332.059 335.105 331.717 336.062 331.28C337.046 330.842 337.948 330.378 338.768 329.886C339.588 329.394 340.408 328.847 341.228 328.246C342.075 327.644 342.786 327.111 343.36 326.647C343.961 326.155 344.521 325.663 345.041 325.171C345.587 324.679 345.956 324.337 346.148 324.146C346.366 323.954 346.517 323.818 346.599 323.736C346.79 323.517 347.036 323.408 347.337 323.408ZM323.024 311.846C322.914 312.474 323.01 312.789 323.311 312.789C323.529 312.789 323.748 312.775 323.967 312.748C324.377 312.72 324.623 312.488 324.705 312.051C327.192 304.78 328.19 300.639 327.698 299.628C327.643 299.464 327.534 299.368 327.37 299.341C327.206 299.286 327.069 299.313 326.96 299.423C326.331 300.106 325.62 301.623 324.828 303.974C324.035 306.297 323.434 308.921 323.024 311.846ZM322.491 318.242C322.737 318.242 323.037 317.736 323.393 316.725C323.775 315.713 323.885 315.112 323.721 314.921C323.338 314.729 322.983 314.757 322.655 315.003C322.518 315.139 322.409 315.481 322.327 316.028C322.272 316.547 322.258 317.053 322.286 317.545C322.313 318.009 322.381 318.242 322.491 318.242Z" fill="black"/>
<line x1="372.5" y1="322.888" x2="542" y2="322.888" stroke="black"/>
</svg>
