<svg width="676" height="191" viewBox="0 0 676 191" fill="none" xmlns="http://www.w3.org/2000/svg">
<path d="M155.333 1.23637C136.533 4.43637 118.8 14.0364 103.2 29.6364C86.5333 46.303 80 61.7697 80 85.103C80 100.57 84 116.303 92 132.57C99.4667 147.636 108.133 157.636 122.667 167.903C140.667 180.703 149.067 183.103 173.467 182.17L190 181.636L177.333 184.703C161.067 188.703 136 190.17 121.733 187.77C110.267 185.903 95.0667 181.236 89.8667 177.77L86.5333 175.636L89.3333 172.17C94.5333 165.503 91.7333 151.77 83.8667 146.036C79.3333 142.836 75.3333 143.903 72.5333 149.37C69.6 154.97 71.2 162.57 76.8 169.77C81.0667 175.37 81.0667 175.77 78.5333 175.77C76.9333 175.77 69.8667 174.036 62.8 171.77C44.6667 166.303 32.4 164.57 23.7333 166.436C16.4 167.903 0 176.303 0 178.436C0 180.436 1.06667 180.036 7.06667 176.036C21.7333 166.036 34.5333 165.503 62 173.77C70.8 176.436 79.4667 178.303 81.0667 178.036C82.9333 177.636 87.4667 179.103 91.7333 181.236C116.533 193.503 160.267 194.17 193.333 182.703C213.2 175.77 224.533 168.836 240 154.036C247.333 146.97 250.4 142.57 255.333 132.836C263.733 115.37 265.867 106.303 264.933 89.103C263.333 55.7697 248 24.4364 227.467 12.4364C224.533 10.703 217.2 8.03636 211.333 6.5697C205.467 5.10303 197.067 2.9697 192.667 1.90303C184.267 -0.363647 166.533 -0.630295 155.333 1.23637ZM192 3.90303C195.733 4.70302 198.533 5.7697 198 6.16971C197.6 6.5697 190.267 6.9697 181.6 7.10304C167.2 7.23637 165.333 7.63637 158 11.2364C140.667 19.7697 127.2 37.6364 123.867 56.4364C123.2 60.8364 120.533 69.3697 118 75.2364C110.933 92.4364 108.933 104.036 109.6 122.836C110.267 138.436 111.867 146.17 118 160.436C119.733 164.57 109.6 155.37 103.467 147.236C86.5333 124.836 78.1333 90.303 83.8667 66.4364C90.6667 38.1697 116.533 13.903 149.333 4.9697C159.467 2.16969 181.6 1.63635 192 3.90303ZM173.333 12.703C157.2 20.0364 144 31.7697 132.533 48.9697C129.067 54.1697 126.133 58.4364 126 58.4364C124.8 58.4364 128.667 46.1697 131.467 40.4364C140.667 22.303 159.2 9.10303 175.333 9.23637L180.667 9.36971L173.333 12.703ZM223.333 13.103C233.067 17.7697 245.067 30.5697 250.933 42.4364C253.6 47.903 256.267 53.903 256.667 55.7697C257.467 58.9697 257.333 58.9697 254.533 55.103C245.333 42.703 228.133 30.4364 220 30.4364C217.6 30.4364 214.667 28.4364 210.667 24.303C207.333 20.9697 202.133 16.5697 199.067 14.5697C196 12.4364 193.867 10.303 194.4 9.7697C194.933 9.23636 200.133 9.10303 206 9.36971C213.867 9.63637 218.4 10.703 223.333 13.103ZM172.667 21.3697C161.867 32.303 158.4 39.3697 155.867 56.0364C153.467 71.7697 156.533 88.4364 165.333 107.236C175.067 128.303 187.067 143.103 204.267 155.503C209.867 159.503 214.8 163.636 215.2 164.57C217.867 171.636 182.133 182.303 161.333 180.703C150.533 179.77 139.467 176.97 135.467 174.036C133.6 172.703 135.867 172.836 144.8 174.703C164.133 178.57 178.667 177.636 178.667 172.436C178.667 171.37 172.8 164.57 165.733 157.37C151.067 142.836 143.2 130.703 134.533 109.77C128 93.6364 125.333 83.103 125.333 72.5697C125.333 65.903 126 63.6364 130.267 56.5697C142.8 35.7697 159.867 20.0364 176.8 13.903C179.733 12.8364 182.133 11.903 182.133 11.903C182.267 11.7697 178 16.1697 172.667 21.3697ZM194.8 14.5697C197.867 16.0364 202.933 20.0364 206.267 23.3697L212.4 29.3697L204.533 32.0364C189.733 36.9697 177.733 47.2364 172.8 58.8364C170.267 64.9697 167.333 79.6364 165.867 92.4364L164.933 101.77L161.733 91.7697C151.6 60.703 160.133 29.903 182.533 15.503C185.867 13.503 188.667 11.7697 188.933 11.7697C189.2 11.7697 191.867 12.9697 194.8 14.5697ZM217.867 37.7697C222.4 45.3697 228.667 64.5697 232 81.103C235.6 98.4364 235.6 98.4364 230.4 98.4364C228 98.4364 223.067 99.903 219.333 101.636C202.267 109.77 194.267 128.036 201.333 143.37C209.467 161.503 221.333 159.636 231.6 138.836C236.133 129.77 236.667 127.503 237.333 114.836L238 100.836L241.6 104.436C243.733 106.436 246 110.57 246.8 113.636C248.4 119.636 247.733 133.636 245.333 141.37C243.467 147.636 234.4 157.636 224.133 164.97C216.133 170.57 215.867 170.57 216.8 167.236C217.867 162.703 216.667 161.37 203.733 152.303C191.867 144.036 178.8 128.703 171.6 114.57C167.2 105.77 167.2 105.77 168.267 93.103C170.667 65.6364 177.067 50.4364 190 41.7697C195.6 38.1697 210 32.0364 213.6 31.7697C214 31.7697 216 34.4364 217.867 37.7697ZM230.933 36.8364C239.2 41.2364 252 54.703 256.667 63.7697C261.467 73.103 262.933 85.2364 261.2 99.6364C259.867 111.103 254.4 129.77 251.2 134.036C249.733 136.036 249.6 135.37 250.267 128.97C251.333 117.636 248.667 108.436 242.533 102.303C237.733 97.503 237.067 95.903 234.667 83.6364C231.333 66.4364 226.133 49.2364 221.2 39.3697L217.2 31.6364L220.933 32.5697C223.067 33.103 227.467 34.9697 230.933 36.8364ZM127.467 97.503C135.867 122.97 146.533 141.103 163.067 158.036C171.6 166.703 175.867 172.17 175.333 173.236C172.933 176.836 138.133 172.303 127.733 166.97C118.4 162.17 111.333 140.836 111.467 117.77C111.6 102.436 112.533 97.5031 118.267 81.103L121.867 71.103L123.6 80.8364C124.4 86.303 126.267 93.7697 127.467 97.503ZM235.467 105.77C238.667 123.37 225.6 153.103 214.667 153.103C210.133 153.103 207.6 150.836 203.867 143.37C199.733 135.37 200.667 123.103 206.133 115.503C211.2 108.17 222.8 101.103 229.6 101.103C234.267 101.103 234.667 101.37 235.467 105.77ZM82.9333 147.903C84.4 148.703 86.8 152.036 88.2667 155.37C91.0667 161.636 90.8 165.903 87.2 171.503C84.6667 175.503 81.2 173.77 76.6667 165.903C72.9333 159.37 72.2667 151.636 75.4667 148.57C77.8667 146.036 79.2 145.903 82.9333 147.903Z" fill="black"/>
<path d="M316.941 80.4438L329.853 46.8438H332.829L345.741 80.4438H342.237L336.285 64.6998H325.389L320.445 80.4438H316.941ZM330.189 49.3398L325.725 63.5478H335.853L330.477 49.3398H330.189ZM358.829 46.8438H362.093V67.0998C362.093 70.9718 363.037 73.9958 364.925 76.1718C366.845 78.3158 369.533 79.3878 372.989 79.3878C375.165 79.3878 377.053 78.9718 378.653 78.1398C380.285 77.2758 381.533 76.0918 382.397 74.5878C383.293 73.0838 383.709 71.3558 383.645 69.4038L382.829 46.8438H386.093L385.277 69.4038C385.149 73.2438 383.997 76.1558 381.821 78.1398C379.677 80.1238 376.605 81.1158 372.605 81.1158C368.285 81.1158 364.909 79.8678 362.477 77.3718C360.045 74.8438 358.829 71.3878 358.829 67.0038V46.8438ZM404.326 80.4438V46.8438H414.886C418.598 46.8438 421.83 47.5478 424.582 48.9558C427.334 50.3638 429.478 52.3318 431.014 54.8598C432.55 57.3558 433.318 60.2838 433.318 63.6438C433.318 67.0038 432.55 69.9478 431.014 72.4758C429.478 74.9718 427.334 76.9238 424.582 78.3318C421.83 79.7398 418.598 80.4438 414.886 80.4438H404.326ZM414.886 47.9958H407.59V79.2918H414.886C419.526 79.2918 423.142 77.9158 425.734 75.1638C428.358 72.4118 429.67 68.5718 429.67 63.6438C429.67 58.7158 428.358 54.8758 425.734 52.1238C423.142 49.3718 419.526 47.9958 414.886 47.9958ZM450.14 80.4438V46.8438H464.78V49.1958L456.38 48.0918C454.908 47.8998 453.916 47.8038 453.404 47.8038V62.4438C453.82 62.4438 454.812 62.3958 456.38 62.2998L464.252 61.8198V64.0278L456.38 63.5478C454.812 63.4518 453.82 63.4038 453.404 63.4038V79.4838C453.98 79.4838 454.988 79.3878 456.428 79.1958L464.924 78.0918V80.4438H450.14ZM481.704 46.8438H484.968V79.4838C485.576 79.4838 486.536 79.3878 487.848 79.1958L495.816 77.9958V80.4438H481.704V46.8438ZM502.985 46.8438H506.489L518.249 76.2198H518.537L526.217 57.2118L522.041 46.8438H525.545L537.257 76.1238H537.545L547.241 46.8438H550.745L536.921 81.1158H535.865L526.889 58.7958L517.865 81.1158H516.809L502.985 46.8438ZM564.941 80.4438V46.8438H579.581V49.1958L571.181 48.0918C569.709 47.8998 568.717 47.8038 568.205 47.8038V62.4438C568.621 62.4438 569.613 62.3958 571.181 62.2998L579.053 61.8198V64.0278L571.181 63.5478C569.613 63.4518 568.621 63.4038 568.205 63.4038V79.4838C568.781 79.4838 569.789 79.3878 571.229 79.1958L579.725 78.0918V80.4438H564.941ZM596.504 80.4438V46.8438H599.768V80.4438H596.504ZM616.046 79.3878L616.334 76.5078H616.622C617.87 77.5958 619.278 78.4438 620.846 79.0518C622.414 79.6598 623.966 79.9638 625.502 79.9638C627.678 79.9638 629.438 79.3718 630.782 78.1878C632.126 76.9718 632.798 75.3558 632.798 73.3398C632.798 72.2198 632.542 71.1798 632.03 70.2198C631.55 69.2598 630.734 68.2838 629.582 67.2918C628.462 66.2998 626.91 65.2278 624.926 64.0758C623.55 63.2758 622.238 62.4438 620.99 61.5798C619.742 60.6838 618.718 59.6598 617.918 58.5078C617.118 57.3238 616.718 55.9158 616.718 54.2838C616.718 51.8518 617.598 49.8998 619.358 48.4278C621.118 46.9238 623.438 46.1718 626.318 46.1718C627.598 46.1718 628.974 46.3158 630.446 46.6038C631.918 46.8598 633.054 47.1958 633.854 47.6118L633.614 50.2998H633.326C631.502 48.3158 629.166 47.3238 626.318 47.3238C624.27 47.3238 622.622 47.8518 621.374 48.9078C620.126 49.9318 619.502 51.3238 619.502 53.0838C619.502 54.3958 619.838 55.5318 620.51 56.4918C621.214 57.4198 622.11 58.2678 623.198 59.0358C624.286 59.7718 625.454 60.4918 626.702 61.1958C628.142 62.0278 629.534 62.9078 630.878 63.8358C632.254 64.7638 633.374 65.8838 634.238 67.1958C635.134 68.4758 635.582 70.0918 635.582 72.0438C635.582 73.8358 635.166 75.4198 634.334 76.7958C633.502 78.1398 632.318 79.1958 630.782 79.9638C629.278 80.7318 627.518 81.1158 625.502 81.1158C624.222 81.1158 622.718 80.9558 620.99 80.6358C619.262 80.3158 617.614 79.8998 616.046 79.3878ZM648.829 79.3878L649.117 76.5078H649.405C650.653 77.5958 652.061 78.4438 653.629 79.0518C655.197 79.6598 656.749 79.9638 658.285 79.9638C660.461 79.9638 662.221 79.3718 663.565 78.1878C664.909 76.9718 665.581 75.3558 665.581 73.3398C665.581 72.2198 665.325 71.1798 664.813 70.2198C664.333 69.2598 663.517 68.2838 662.365 67.2918C661.245 66.2998 659.693 65.2278 657.709 64.0758C656.333 63.2758 655.021 62.4438 653.773 61.5798C652.525 60.6838 651.501 59.6598 650.701 58.5078C649.901 57.3238 649.501 55.9158 649.501 54.2838C649.501 51.8518 650.381 49.8998 652.141 48.4278C653.901 46.9238 656.221 46.1718 659.101 46.1718C660.381 46.1718 661.757 46.3158 663.229 46.6038C664.701 46.8598 665.837 47.1958 666.637 47.6118L666.397 50.2998H666.109C664.285 48.3158 661.949 47.3238 659.101 47.3238C657.053 47.3238 655.405 47.8518 654.157 48.9078C652.909 49.9318 652.285 51.3238 652.285 53.0838C652.285 54.3958 652.621 55.5318 653.293 56.4918C653.997 57.4198 654.893 58.2678 655.981 59.0358C657.069 59.7718 658.237 60.4918 659.485 61.1958C660.925 62.0278 662.317 62.9078 663.661 63.8358C665.037 64.7638 666.157 65.8838 667.021 67.1958C667.917 68.4758 668.365 70.0918 668.365 72.0438C668.365 73.8358 667.949 75.4198 667.117 76.7958C666.285 78.1398 665.101 79.1958 663.565 79.9638C662.061 80.7318 660.301 81.1158 658.285 81.1158C657.005 81.1158 655.501 80.9558 653.773 80.6358C652.045 80.3158 650.397 79.8998 648.829 79.3878Z" fill="black"/>
<line x1="312.136" y1="127.444" x2="392.136" y2="127.444" stroke="black"/>
<path d="M452.409 128.866C452.71 128.866 452.956 128.975 453.147 129.194C453.366 129.413 453.461 129.672 453.434 129.973C453.434 130.274 453.311 130.52 453.065 130.711C449.73 133.499 446.013 135.645 441.913 137.148C437.813 138.651 433.576 139.417 429.203 139.444C427.071 139.444 424.953 139.253 422.848 138.87C421.618 138.651 420.579 138.337 419.732 137.927C418.885 137.49 418.27 137.011 417.887 136.492C417.477 135.973 417.204 135.494 417.067 135.057C416.903 134.592 416.821 134.128 416.821 133.663C416.821 132.296 417.34 130.889 418.379 129.44C419.39 127.964 420.593 126.734 421.987 125.75C423.408 124.766 424.72 124.151 425.923 123.905C427.59 123.44 429.094 123.727 430.433 124.766C431.554 125.832 432.114 127.144 432.114 128.702C432.087 129.003 431.964 129.262 431.745 129.481C431.554 129.672 431.308 129.768 431.007 129.768C430.706 129.768 430.447 129.659 430.228 129.44C430.037 129.221 429.941 128.962 429.941 128.661C429.968 127.786 429.668 127.035 429.039 126.406C428.192 125.859 427.29 125.736 426.333 126.037C424.83 126.31 423.217 127.308 421.495 129.03C419.8 130.725 418.953 132.269 418.953 133.663C418.98 135.221 420.402 136.26 423.217 136.779C424.966 137.08 426.729 137.244 428.506 137.271C430.31 137.298 431.95 137.216 433.426 137.025C434.929 136.806 436.419 136.506 437.895 136.123C439.371 135.74 440.683 135.317 441.831 134.852C442.979 134.387 444.086 133.882 445.152 133.335C446.245 132.761 447.147 132.255 447.858 131.818C448.596 131.381 449.279 130.93 449.908 130.465C450.537 130 450.96 129.686 451.179 129.522C451.398 129.331 451.548 129.194 451.63 129.112C451.849 128.921 452.108 128.839 452.409 128.866ZM486.02 128.333C486.321 128.333 486.567 128.442 486.758 128.661C486.977 128.88 487.086 129.139 487.086 129.44C487.086 129.713 486.977 129.959 486.758 130.178C484.107 132.747 480.84 134.729 476.959 136.123C473.078 137.49 469.524 138.173 466.299 138.173C464.741 138.255 463.238 137.968 461.789 137.312C461.16 136.957 460.655 136.56 460.272 136.123C459.889 135.686 459.643 135.221 459.534 134.729C459.425 134.21 459.356 133.745 459.329 133.335C459.329 132.925 459.425 132.46 459.616 131.941C459.807 131.394 459.958 130.984 460.067 130.711C460.204 130.41 460.381 130.041 460.6 129.604C460.682 129.44 460.614 129.344 460.395 129.317C460.286 129.317 460.135 129.372 459.944 129.481C458.441 130.301 456.828 130.67 455.106 130.588C454.341 130.615 453.589 130.465 452.851 130.137C452.578 130.219 452.304 130.192 452.031 130.055C451.594 129.836 451.402 129.481 451.457 128.989C451.047 128.497 450.76 127.937 450.596 127.308C450.268 126.187 450.295 125.08 450.678 123.987C451.061 122.894 451.73 121.992 452.687 121.281C453.835 120.598 454.737 120.57 455.393 121.199C456.295 122.046 455.994 124.165 454.491 127.554C454.436 127.691 454.477 127.882 454.614 128.128C454.751 128.347 454.915 128.456 455.106 128.456C456.691 128.456 458.181 128.06 459.575 127.267C459.985 127.021 460.313 126.857 460.559 126.775C460.805 126.666 461.133 126.625 461.543 126.652C461.953 126.652 462.336 126.789 462.691 127.062C463.046 127.335 463.238 127.691 463.265 128.128C463.292 128.565 463.238 128.948 463.101 129.276C462.992 129.577 462.8 130 462.527 130.547C461.844 131.804 461.502 132.816 461.502 133.581C461.529 134.319 461.994 134.948 462.896 135.467C463.443 135.795 464.331 135.986 465.561 136.041C466.791 136.096 468.24 135.986 469.907 135.713C471.574 135.44 473.296 135.03 475.073 134.483C476.85 133.936 478.654 133.157 480.485 132.146C482.316 131.107 483.902 129.932 485.241 128.62C485.46 128.429 485.719 128.333 486.02 128.333ZM452.605 126.406C453.097 125.367 453.48 124.288 453.753 123.167C452.742 124.042 452.359 125.121 452.605 126.406ZM517.586 129.153C517.887 129.153 518.133 129.262 518.324 129.481C518.515 129.7 518.597 129.959 518.57 130.26C518.57 130.561 518.461 130.807 518.242 130.998C517.996 131.217 517.668 131.504 517.258 131.859C516.875 132.187 516.165 132.734 515.126 133.499C514.087 134.264 513.035 134.961 511.969 135.59C510.903 136.219 509.646 136.847 508.197 137.476C506.748 138.077 505.354 138.501 504.015 138.747C502.676 138.993 501.268 139.02 499.792 138.829C498.316 138.61 496.963 138.105 495.733 137.312C494.585 136.574 493.669 135.617 492.986 134.442C492.795 134.114 492.494 133.936 492.084 133.909C491.701 133.882 491.401 134.032 491.182 134.36C490.225 135.836 489.173 137.08 488.025 138.091C486.904 139.102 485.866 139.622 484.909 139.649H484.868C484.376 139.622 483.925 139.471 483.515 139.198C483.078 138.897 482.763 138.515 482.572 138.05C481.752 136 481.875 134.005 482.941 132.064C483.843 130.178 485.1 128.579 486.713 127.267C488.353 125.928 490.198 125.012 492.248 124.52C492.658 124.411 493 124.506 493.273 124.807C493.574 125.108 493.656 125.463 493.519 125.873C493.41 126.256 493.15 126.502 492.74 126.611C491.018 127.021 489.474 127.786 488.107 128.907C486.74 130 485.674 131.353 484.909 132.966C484.144 134.278 484.007 135.645 484.499 137.066C484.663 137.339 484.786 137.476 484.868 137.476C485.333 137.777 486.235 136.929 487.574 134.934C488.913 132.939 490.116 130.779 491.182 128.456C491.401 127.964 491.783 127.759 492.33 127.841C492.849 127.923 493.15 128.224 493.232 128.743C493.259 128.88 493.287 129.071 493.314 129.317C493.369 129.536 493.492 129.959 493.683 130.588C493.874 131.189 494.093 131.763 494.339 132.31C494.585 132.857 494.94 133.444 495.405 134.073C495.87 134.674 496.375 135.153 496.922 135.508C497.961 136.191 499.122 136.601 500.407 136.738C501.719 136.875 502.963 136.806 504.138 136.533C505.341 136.26 506.598 135.836 507.91 135.262C509.222 134.661 510.356 134.059 511.313 133.458C512.27 132.857 513.213 132.214 514.142 131.531C515.071 130.848 515.7 130.369 516.028 130.096C516.383 129.795 516.643 129.563 516.807 129.399C517.026 129.208 517.285 129.126 517.586 129.153ZM543.523 128.415C543.824 128.415 544.07 128.524 544.261 128.743C544.48 128.962 544.589 129.221 544.589 129.522C544.589 129.823 544.48 130.069 544.261 130.26C541.337 133.075 536.403 134.251 529.46 133.786C526.126 133.54 522.859 132.925 519.661 131.941C519.333 131.832 519.074 131.859 518.882 132.023C518.691 132.16 518.609 132.406 518.636 132.761C518.691 133.444 518.773 134.278 518.882 135.262C519.046 137.121 519.183 138.733 519.292 140.1C519.402 141.467 519.497 142.956 519.579 144.569C519.661 146.209 519.689 147.617 519.661 148.792C519.661 149.967 519.593 151.143 519.456 152.318C519.347 153.521 519.169 154.518 518.923 155.311C518.677 156.104 518.349 156.787 517.939 157.361C517.529 157.935 517.037 158.331 516.463 158.55C516.245 158.632 516.026 158.673 515.807 158.673C515.315 158.673 514.892 158.509 514.536 158.181C513.908 157.58 513.525 156.322 513.388 154.409C513.224 152.496 513.279 150.241 513.552 147.644C513.826 145.075 514.208 142.423 514.7 139.69C515.192 136.984 515.753 134.36 516.381 131.818C516.381 131.763 516.381 131.709 516.381 131.654C516.299 130.588 516.313 129.877 516.422 129.522C516.504 129.139 516.709 128.866 517.037 128.702C517.065 128.511 517.147 128.333 517.283 128.169L517.365 128.087C519.607 120.297 521.875 115.76 524.171 114.475C524.855 114.065 525.579 113.969 526.344 114.188C527.082 114.379 527.561 114.844 527.779 115.582C527.943 116.265 527.779 117.181 527.287 118.329C526.823 119.45 526.112 120.68 525.155 122.019C524.199 123.331 523.297 124.506 522.449 125.545C521.629 126.556 520.755 127.568 519.825 128.579C519.525 128.88 519.388 129.126 519.415 129.317C519.47 129.508 519.716 129.686 520.153 129.85C521.493 130.287 523.105 130.67 524.991 130.998C526.905 131.326 528.982 131.558 531.223 131.695C533.492 131.832 535.679 131.654 537.783 131.162C539.915 130.67 541.569 129.864 542.744 128.743C542.963 128.524 543.223 128.415 543.523 128.415ZM525.196 116.361C524.595 116.853 523.488 118.479 521.875 121.24C520.673 123.29 520.276 124.233 520.686 124.069C520.796 124.014 520.987 123.837 521.26 123.536C521.998 122.798 522.75 121.855 523.515 120.707C524.281 119.532 524.868 118.507 525.278 117.632C525.716 116.73 525.852 116.238 525.688 116.156C525.606 116.129 525.524 116.129 525.442 116.156C525.388 116.183 525.333 116.224 525.278 116.279L525.196 116.361ZM515.889 156.459C516.354 156.514 516.737 155.106 517.037 152.236C517.338 149.393 517.475 146.51 517.447 143.585C517.42 140.688 517.27 139.239 516.996 139.239C516.778 139.239 516.532 140.127 516.258 141.904C515.958 143.681 515.725 145.635 515.561 147.767C515.37 149.899 515.302 151.867 515.356 153.671C515.384 155.475 515.561 156.404 515.889 156.459ZM569.973 127.964C570.274 127.964 570.533 128.073 570.752 128.292C570.971 128.483 571.08 128.729 571.08 129.03C571.08 129.331 570.971 129.59 570.752 129.809C570.451 130.137 570.041 130.547 569.522 131.039C569.03 131.504 568.101 132.269 566.734 133.335C565.395 134.401 564.055 135.344 562.716 136.164C561.404 136.984 559.86 137.736 558.083 138.419C556.334 139.075 554.694 139.403 553.163 139.403C552.042 139.403 550.935 139.198 549.842 138.788C547.382 137.859 545.564 135.795 544.389 132.597C543.214 129.399 542.776 125.354 543.077 120.461C543.05 120.242 542.954 120.065 542.79 119.928C542.626 119.791 542.435 119.737 542.216 119.764C541.068 119.846 539.893 119.942 538.69 120.051C537.487 120.133 536.449 120.215 535.574 120.297C534.699 120.352 533.907 120.406 533.196 120.461C532.458 120.488 531.898 120.516 531.515 120.543C531.132 120.57 530.927 120.584 530.9 120.584H530.818C530.517 120.611 530.258 120.529 530.039 120.338C529.82 120.119 529.711 119.86 529.711 119.559C529.711 119.258 529.807 118.999 529.998 118.78C530.189 118.561 530.435 118.452 530.736 118.452C530.763 118.452 530.982 118.438 531.392 118.411C531.802 118.384 532.39 118.343 533.155 118.288C533.893 118.233 534.727 118.179 535.656 118.124C536.558 118.042 537.638 117.96 538.895 117.878C540.152 117.769 541.382 117.673 542.585 117.591C543.077 117.536 543.378 117.154 543.487 116.443C543.733 114.748 544.047 113.095 544.43 111.482C544.84 109.869 545.305 108.325 545.824 106.849C546.343 105.373 546.931 104.157 547.587 103.2C548.27 102.243 548.967 101.697 549.678 101.56C550.771 101.369 551.632 101.915 552.261 103.2C552.671 104.02 552.63 105.646 552.138 108.079C551.646 110.484 550.853 113.218 549.76 116.279C549.678 116.498 549.651 116.675 549.678 116.812C549.733 116.921 549.787 117.003 549.842 117.058C549.897 117.085 549.965 117.099 550.047 117.099C556.306 116.716 560.816 116.525 563.577 116.525C563.878 116.525 564.124 116.634 564.315 116.853C564.534 117.072 564.643 117.331 564.643 117.632C564.643 117.905 564.534 118.151 564.315 118.37C564.124 118.589 563.878 118.698 563.577 118.698C559.313 118.698 554.557 118.903 549.309 119.313C549.063 119.313 548.885 119.34 548.776 119.395C548.694 119.45 548.612 119.573 548.53 119.764C547.847 121.759 546.822 124.479 545.455 127.923C546.138 132.761 547.86 135.713 550.621 136.779C551.414 137.08 552.275 137.23 553.204 137.23C554.133 137.23 555.035 137.107 555.91 136.861C556.812 136.615 557.741 136.273 558.698 135.836C559.682 135.399 560.584 134.934 561.404 134.442C562.224 133.95 563.044 133.403 563.864 132.802C564.711 132.201 565.422 131.668 565.996 131.203C566.597 130.711 567.158 130.219 567.677 129.727C568.224 129.235 568.593 128.893 568.784 128.702C569.003 128.511 569.153 128.374 569.235 128.292C569.426 128.073 569.672 127.964 569.973 127.964ZM545.66 116.402C545.551 117.031 545.646 117.345 545.947 117.345C546.166 117.345 546.384 117.331 546.603 117.304C547.013 117.277 547.259 117.044 547.341 116.607C549.828 109.336 550.826 105.195 550.334 104.184C550.279 104.02 550.17 103.924 550.006 103.897C549.842 103.842 549.705 103.87 549.596 103.979C548.967 104.662 548.257 106.179 547.464 108.53C546.671 110.853 546.07 113.477 545.66 116.402ZM545.127 122.798C545.373 122.798 545.674 122.292 546.029 121.281C546.412 120.27 546.521 119.668 546.357 119.477C545.974 119.286 545.619 119.313 545.291 119.559C545.154 119.696 545.045 120.037 544.963 120.584C544.908 121.103 544.895 121.609 544.922 122.101C544.949 122.566 545.018 122.798 545.127 122.798Z" fill="black"/>
<line x1="595.136" y1="127.444" x2="675.136" y2="127.444" stroke="black"/>
</svg>
